<svg xmlns="http://www.w3.org/2000/svg" viewBox="0 0 800 500" role="img" aria-label="Crypto Trading">
  <defs>
    <linearGradient id="bg" x1="0" y1="0" x2="1" y2="1">
      <stop offset="0%" stop-color="#111827"/>
      <stop offset="100%" stop-color="#1e3a8a"/>
    </linearGradient>
    <linearGradient id="coin" x1="0" y1="0" x2="1" y2="1">
      <stop offset="0%" stop-color="#f59e0b"/>
      <stop offset="100%" stop-color="#facc15"/>
    </linearGradient>
  </defs>
  <rect width="800" height="500" fill="url(#bg)"/>
  <g opacity="0.3" stroke="#60a5fa" stroke-width="3">
    <path d="M70 120 H250 V210 H420" fill="none"/>
    <path d="M160 80 V160 H310 V290 H470" fill="none"/>
    <path d="M520 110 H680 V240 H730" fill="none"/>
    <circle cx="250" cy="120" r="8" fill="#60a5fa"/>
    <circle cx="420" cy="210" r="8" fill="#60a5fa"/>
    <circle cx="680" cy="110" r="8" fill="#60a5fa"/>
  </g>
  <circle cx="265" cy="245" r="92" fill="url(#coin)"/>
  <circle cx="265" cy="245" r="70" fill="none" stroke="#fff8e1" stroke-width="10"/>
  <text x="265" y="270" text-anchor="middle" font-family="Arial, sans-serif" font-size="82" font-weight="700" fill="#fff8e1">₿</text>
  <g transform="translate(430 135)">
    <rect x="0" y="160" width="56" height="95" rx="12" fill="#60a5fa"/>
    <rect x="78" y="110" width="56" height="145" rx="12" fill="#34d399"/>
    <rect x="156" y="55" width="56" height="200" rx="12" fill="#f59e0b"/>
    <path d="M20 55 L85 25 L150 65 L220 0" fill="none" stroke="#ffffff" stroke-width="8" stroke-linecap="round" stroke-linejoin="round"/>
    <circle cx="20" cy="55" r="8" fill="#ffffff"/>
    <circle cx="85" cy="25" r="8" fill="#ffffff"/>
    <circle cx="150" cy="65" r="8" fill="#ffffff"/>
    <circle cx="220" cy="0" r="8" fill="#ffffff"/>
  </g>
  <text x="400" y="430" text-anchor="middle" font-family="Arial, sans-serif" font-size="44" font-weight="700" fill="#ffffff">Crypto Trading</text>
</svg>
